HIERARCHY
ROOT newVegas:Hips
{
	OFFSET 0.000000 96.479958 0.000000
	CHANNELS 6 Xposition Yposition Zposition Xrotation Yrotation Zrotation
	JOINT newVegas:Pelvis
	{
		OFFSET 0.000000 0.000000 0.000000
		CHANNELS 3 Xrotation Yrotation Zrotation
		JOINT newVegas:LeftUpLeg
		{
			OFFSET 18.735201 -5.666702 -4.541200
			CHANNELS 3 Xrotation Yrotation Zrotation
			JOINT newVegas:LeftLeg
			{
				OFFSET -0.021200 -31.938179 0.493100
				CHANNELS 3 Xrotation Yrotation Zrotation
				JOINT newVegas:LeftFoot
				{
					OFFSET 0.021200 -31.938179 -4.336299
					CHANNELS 3 Xrotation Yrotation Zrotation
					JOINT newVegas:LeftToeBase
					{
						OFFSET 0.943001 -26.722000 15.023500
						CHANNELS 3 Xrotation Yrotation Zrotation
						End Site
						{
							OFFSET 0.000000 30.670183 0.000000
						}
					}
				}
				JOINT newVegas:Left_PantLeg
				{
					OFFSET 0.663870 -9.044666 -1.108900
					CHANNELS 3 Xrotation Yrotation Zrotation
					End Site
					{
						OFFSET 1.415995 20.635357 0.000000
					}
				}
			}
		}
		JOINT newVegas:RightUpLeg
		{
			OFFSET -18.735201 -5.666702 -4.541200
			CHANNELS 3 Xrotation Yrotation Zrotation
			JOINT newVegas:RightLeg
			{
				OFFSET 0.018946 -31.938133 0.493100
				CHANNELS 3 Xrotation Yrotation Zrotation
				JOINT newVegas:RightFoot
				{
					OFFSET -0.018946 -31.938126 -4.336299
					CHANNELS 3 Xrotation Yrotation Zrotation
					JOINT newVegas:RightToeBase
					{
						OFFSET -0.943001 -26.722004 15.023500
						CHANNELS 3 Xrotation Yrotation Zrotation
						End Site
						{
							OFFSET 0.000000 30.670187 0.000000
						}
					}
				}
				JOINT newVegas:Right_PantLeg
				{
					OFFSET -0.661674 -9.044716 -1.108900
					CHANNELS 3 Xrotation Yrotation Zrotation
					End Site
					{
						OFFSET -1.415958 20.635269 0.000000
					}
				}
			}
		}
	}
	JOINT newVegas:Spine
	{
		OFFSET 0.000000 10.199997 -0.299500
		CHANNELS 3 Xrotation Yrotation Zrotation
		JOINT newVegas:Spine1
		{
			OFFSET 0.000000 11.900002 -1.516600
			CHANNELS 3 Xrotation Yrotation Zrotation
			JOINT newVegas:Spine2
			{
				OFFSET 0.000000 13.600006 -2.842500
				CHANNELS 3 Xrotation Yrotation Zrotation
				JOINT newVegas:Neck
				{
					OFFSET 0.000000 9.624100 -2.890100
					CHANNELS 3 Xrotation Yrotation Zrotation
					JOINT newVegas:Head
					{
						OFFSET 0.000000 14.068802 -1.351900
						CHANNELS 3 Xrotation Yrotation Zrotation
						JOINT newVegas:Hair_Back
						{
							OFFSET 0.000000 3.231903 -17.524799
							CHANNELS 3 Xrotation Yrotation Zrotation
							End Site
							{
								OFFSET 0.000000 19.849884 0.000000
							}
						}
						JOINT newVegas:Hair_Front
						{
							OFFSET 0.000000 31.260406 4.573800
							CHANNELS 3 Xrotation Yrotation Zrotation
							JOINT newVegas:Hair_Front1
							{
								OFFSET 0.000000 2.284103 11.993300
								CHANNELS 3 Xrotation Yrotation Zrotation
								JOINT newVegas:Hair_Front2
								{
									OFFSET 0.000000 2.284103 11.993300
									CHANNELS 3 Xrotation Yrotation Zrotation
									End Site
									{
										OFFSET 0.000000 12.208862 0.000000
									}
								}
							}
						}
						JOINT newVegas:Jowel
						{
							OFFSET 0.000000 -7.458206 6.864100
							CHANNELS 3 Xrotation Yrotation Zrotation
							End Site
							{
								OFFSET 0.000000 19.849884 0.000000
							}
						}
					}
				}
				JOINT newVegas:LeftShoulder
				{
					OFFSET 15.263000 10.923401 -0.547700
					CHANNELS 3 Xrotation Yrotation Zrotation
					JOINT newVegas:LeftArm
					{
						OFFSET 25.438599 -2.830597 -13.032500
						CHANNELS 3 Xrotation Yrotation Zrotation
						JOINT newVegas:LeftForeArm
						{
							OFFSET 29.960503 0.000000 0.000000
							CHANNELS 3 Xrotation Yrotation Zrotation
							JOINT newVegas:LeftHand
							{
								OFFSET 27.849251 0.000000 0.000000
								CHANNELS 3 Xrotation Yrotation Zrotation
								JOINT newVegas:LeftHandThumb1
								{
									OFFSET 4.487587 -3.305161 6.305391
									CHANNELS 3 Xrotation Yrotation Zrotation
									JOINT newVegas:LeftHandThumb2
									{
										OFFSET 5.480453 -3.164139 3.164143
										CHANNELS 3 Xrotation Yrotation Zrotation
										JOINT newVegas:LeftHandThumb3
										{
											OFFSET 5.159721 -2.978973 2.978967
											CHANNELS 3 Xrotation Yrotation Zrotation
											End Site
											{
												OFFSET 2.494507 5.926697 1.738678
											}
										}
									}
								}
								JOINT newVegas:LeftHandIndex1
								{
									OFFSET 18.578728 -0.527832 5.208049
									CHANNELS 3 Xrotation Yrotation Zrotation
									JOINT newVegas:LeftHandIndex2
									{
										OFFSET 3.192009 0.000000 0.000000
										CHANNELS 3 Xrotation Yrotation Zrotation
										JOINT newVegas:LeftHandIndex3
										{
											OFFSET 3.835129 0.000000 0.000000
											CHANNELS 3 Xrotation Yrotation Zrotation
											End Site
											{
												OFFSET -0.034599 3.816971 0.371180
											}
										}
									}
								}
								JOINT newVegas:LeftHandMiddle1
								{
									OFFSET 18.476105 0.000000 0.000000
									CHANNELS 3 Xrotation Yrotation Zrotation
									JOINT newVegas:LeftHandMiddle2
									{
										OFFSET 3.324875 0.000000 0.000000
										CHANNELS 3 Xrotation Yrotation Zrotation
										JOINT newVegas:LeftHandMiddle3
										{
											OFFSET 4.596550 0.000000 0.000000
											CHANNELS 3 Xrotation Yrotation Zrotation
											End Site
											{
												OFFSET 0.057701 4.578827 0.399218
											}
										}
									}
								}
								JOINT newVegas:LeftHandRing1
								{
									OFFSET 17.732719 0.121887 -4.201567
									CHANNELS 3 Xrotation Yrotation Zrotation
									JOINT newVegas:LeftHandRing2
									{
										OFFSET 2.733170 0.000000 0.000000
										CHANNELS 3 Xrotation Yrotation Zrotation
										JOINT newVegas:LeftHandRing3
										{
											OFFSET 3.178268 0.000000 0.000000
											CHANNELS 3 Xrotation Yrotation Zrotation
											End Site
											{
												OFFSET 0.119102 3.170624 0.185394
											}
										}
									}
								}
								JOINT newVegas:LeftHandPinky1
								{
									OFFSET 15.989624 -0.606689 -7.535461
									CHANNELS 3 Xrotation Yrotation Zrotation
									JOINT newVegas:LeftHandPinky2
									{
										OFFSET 2.538986 0.000000 0.000000
										CHANNELS 3 Xrotation Yrotation Zrotation
										JOINT newVegas:LeftHandPinky3
										{
											OFFSET 2.593102 0.000000 0.000000
											CHANNELS 3 Xrotation Yrotation Zrotation
											End Site
											{
												OFFSET -0.150902 2.584198 0.152708
											}
										}
									}
								}
							}
							JOINT newVegas:Left_Sleeve
							{
								OFFSET 0.267448 -0.649796 0.577675
								CHANNELS 3 Xrotation Yrotation Zrotation
								End Site
								{
									OFFSET 0.000000 15.991241 0.000000
								}
							}
							JOINT newVegas:Left_CapeC
							{
								OFFSET 15.715958 -8.608795 -6.935905
								CHANNELS 3 Xrotation Yrotation Zrotation
								JOINT newVegas:Left_CapeC1
								{
									OFFSET 0.000000 -8.688499 0.000000
									CHANNELS 3 Xrotation Yrotation Zrotation
									End Site
									{
										OFFSET 0.000000 8.688499 0.000000
									}
								}
							}
						}
						JOINT newVegas:Left_CapeB
						{
							OFFSET 26.118385 -8.608795 -7.079235
							CHANNELS 3 Xrotation Yrotation Zrotation
							JOINT newVegas:Left_CapeB1
							{
								OFFSET 0.000000 -8.688499 0.000000
								CHANNELS 3 Xrotation Yrotation Zrotation
								End Site
								{
									OFFSET 0.000000 8.688499 0.000000
								}
							}
						}
						JOINT newVegas:Left_CapeA
						{
							OFFSET 5.115639 -8.608795 -10.395809
							CHANNELS 3 Xrotation Yrotation Zrotation
							JOINT newVegas:Left_CapeA1
							{
								OFFSET 0.000000 -8.688499 0.000000
								CHANNELS 3 Xrotation Yrotation Zrotation
								End Site
								{
									OFFSET 0.000000 8.688499 0.000000
								}
							}
						}
					}
				}
				JOINT newVegas:RightShoulder
				{
					OFFSET -15.263000 10.923401 -0.547700
					CHANNELS 3 Xrotation Yrotation Zrotation
					JOINT newVegas:RightArm
					{
						OFFSET -25.438599 -2.830597 -13.032500
						CHANNELS 3 Xrotation Yrotation Zrotation
						JOINT newVegas:RightForeArm
						{
							OFFSET -29.960503 0.000000 0.000000
							CHANNELS 3 Xrotation Yrotation Zrotation
							JOINT newVegas:RightHand
							{
								OFFSET -27.849251 0.000000 0.000000
								CHANNELS 3 Xrotation Yrotation Zrotation
								JOINT newVegas:RightHandThumb1
								{
									OFFSET -4.487587 -3.305161 6.305391
									CHANNELS 3 Xrotation Yrotation Zrotation
									JOINT newVegas:RightHandThumb2
									{
										OFFSET -5.480453 -3.164139 3.164143
										CHANNELS 3 Xrotation Yrotation Zrotation
										JOINT newVegas:RightHandThumb3
										{
											OFFSET -5.159721 -2.978973 2.978967
											CHANNELS 3 Xrotation Yrotation Zrotation
											End Site
											{
												OFFSET -2.494507 5.926697 1.738678
											}
										}
									}
								}
								JOINT newVegas:RightHandIndex1
								{
									OFFSET -18.578728 -0.527832 5.208049
									CHANNELS 3 Xrotation Yrotation Zrotation
									JOINT newVegas:RightHandIndex2
									{
										OFFSET -3.192009 0.000000 0.000000
										CHANNELS 3 Xrotation Yrotation Zrotation
										JOINT newVegas:RightHandIndex3
										{
											OFFSET -3.835129 0.000000 0.000000
											CHANNELS 3 Xrotation Yrotation Zrotation
											End Site
											{
												OFFSET 0.034599 3.816971 0.371180
											}
										}
									}
								}
								JOINT newVegas:RightHandMiddle1
								{
									OFFSET -18.476105 0.000000 0.000000
									CHANNELS 3 Xrotation Yrotation Zrotation
									JOINT newVegas:RightHandMiddle2
									{
										OFFSET -3.324875 0.000000 0.000000
										CHANNELS 3 Xrotation Yrotation Zrotation
										JOINT newVegas:RightHandMiddle3
										{
											OFFSET -4.596550 0.000000 0.000000
											CHANNELS 3 Xrotation Yrotation Zrotation
											End Site
											{
												OFFSET -0.057701 4.578827 0.399218
											}
										}
									}
								}
								JOINT newVegas:RightHandRing1
								{
									OFFSET -17.732719 0.121887 -4.201567
									CHANNELS 3 Xrotation Yrotation Zrotation
									JOINT newVegas:RightHandRing2
									{
										OFFSET -2.733170 0.000000 0.000000
										CHANNELS 3 Xrotation Yrotation Zrotation
										JOINT newVegas:RightHandRing3
										{
											OFFSET -3.178268 0.000000 0.000000
											CHANNELS 3 Xrotation Yrotation Zrotation
											End Site
											{
												OFFSET -0.119102 3.170624 0.185394
											}
										}
									}
								}
								JOINT newVegas:RightHandPinky1
								{
									OFFSET -15.989624 -0.606689 -7.535461
									CHANNELS 3 Xrotation Yrotation Zrotation
									JOINT newVegas:RightHandPinky2
									{
										OFFSET -2.538986 0.000000 0.000000
										CHANNELS 3 Xrotation Yrotation Zrotation
										JOINT newVegas:RightHandPinky3
										{
											OFFSET -2.593102 0.000000 0.000000
											CHANNELS 3 Xrotation Yrotation Zrotation
											End Site
											{
												OFFSET 0.150902 2.584198 0.152708
											}
										}
									}
								}
							}
							JOINT newVegas:Right_CapeC
							{
								OFFSET -15.715958 -8.608795 -6.935905
								CHANNELS 3 Xrotation Yrotation Zrotation
								JOINT newVegas:Right_CapeC1
								{
									OFFSET 0.000000 -8.688499 0.000000
									CHANNELS 3 Xrotation Yrotation Zrotation
									End Site
									{
										OFFSET 0.000000 8.688499 0.000000
									}
								}
							}
							JOINT newVegas:Right_Sleeve
							{
								OFFSET -0.267448 -0.649994 0.577675
								CHANNELS 3 Xrotation Yrotation Zrotation
								End Site
								{
									OFFSET 0.000000 15.991302 0.000000
								}
							}
						}
						JOINT newVegas:Right_CapeA
						{
							OFFSET -5.115540 -8.608795 -10.395824
							CHANNELS 3 Xrotation Yrotation Zrotation
							JOINT newVegas:Right_CapeA1
							{
								OFFSET 0.000000 -8.688499 0.000000
								CHANNELS 3 Xrotation Yrotation Zrotation
								End Site
								{
									OFFSET 0.000000 8.688499 0.000000
								}
							}
						}
						JOINT newVegas:Right_CapeB
						{
							OFFSET -26.118187 -8.608795 -7.079266
							CHANNELS 3 Xrotation Yrotation Zrotation
							JOINT newVegas:Right_CapeB1
							{
								OFFSET 0.000000 -8.688499 0.000000
								CHANNELS 3 Xrotation Yrotation Zrotation
								End Site
								{
									OFFSET 0.000000 8.688499 0.000000
								}
							}
						}
					}
				}
				JOINT newVegas:Left_Collar
				{
					OFFSET 18.625099 8.655502 8.828100
					CHANNELS 3 Xrotation Yrotation Zrotation
					JOINT newVegas:Left_Collar1
					{
						OFFSET 14.783401 10.540405 -1.259500
						CHANNELS 3 Xrotation Yrotation Zrotation
						End Site
						{
							OFFSET 0.000000 18.199875 0.000000
						}
					}
				}
				JOINT newVegas:Collar_Back
				{
					OFFSET 0.000000 15.630707 -20.132601
					CHANNELS 3 Xrotation Yrotation Zrotation
					End Site
					{
						OFFSET 0.000000 22.523010 0.000000
					}
				}
				JOINT newVegas:Left_Peck
				{
					OFFSET 17.239599 -5.132599 25.482599
					CHANNELS 3 Xrotation Yrotation Zrotation
					End Site
					{
						OFFSET 0.000000 22.523010 0.000000
					}
				}
				JOINT newVegas:Right_Peck
				{
					OFFSET -17.239599 -5.132202 25.482599
					CHANNELS 3 Xrotation Yrotation Zrotation
					End Site
					{
						OFFSET 0.000000 22.523010 0.000000
					}
				}
				JOINT newVegas:Right_Collar
				{
					OFFSET -18.625099 8.655792 8.828100
					CHANNELS 3 Xrotation Yrotation Zrotation
					JOINT newVegas:Right_Collar1
					{
						OFFSET -14.783401 10.539993 -1.259500
						CHANNELS 3 Xrotation Yrotation Zrotation
						End Site
						{
							OFFSET 0.000000 18.199631 0.000000
						}
					}
				}
			}
		}
		JOINT newVegas:Belly
		{
			OFFSET 0.000000 -6.540398 9.014299
			CHANNELS 3 Xrotation Yrotation Zrotation
			End Site
			{
				OFFSET 0.000000 11.566666 0.000000
			}
		}
	}
	JOINT newVegas:ElvisFacialAnim_Joint
	{
		OFFSET 1.000000 -95.330101 -8.825800
		CHANNELS 3 Xrotation Yrotation Zrotation
		End Site
		{
			OFFSET 0.000000 35.315800 0.000000
		}
	}
}
MOTION
Frames: 4
Frame Time: 0.033333
-1.701077 93.712128 2.385872 2.912646 -28.993309 1.189957 -0.000000 -0.000001 0.000000 -19.098510 17.302708 13.855630 23.887723 12.123500 -1.504241 -6.534124 -3.224875 -8.272197 0.000000 0.000000 -0.000000 0.000000 -0.000001 0.000000 -12.347067 -0.371704 -11.123158 16.910539 9.901024 0.858519 -8.231489 -1.378558 8.917441 0.000000 -0.000001 0.000000 -0.000001 -0.000001 -0.000000 7.835981 -0.359979 -2.682200 1.099754 -0.892533 2.385421 1.109157 -0.601656 2.448214 -0.922873 3.567086 -1.380642 -0.922872 3.567095 -1.380646 0.000001 0.000002 -0.000000 -0.922871 3.567081 -1.380642 -0.922878 3.567101 -1.380646 -0.000000 -0.000000 0.000000 0.000001 0.000002 -0.000000 -0.057364 -8.759688 -0.060749 -55.250807 0.329445 -41.449348 11.584249 -65.827273 13.005392 -50.192130 12.352825 4.611185 17.551607 -5.699208 -12.932303 10.850470 26.127719 8.644801 0.000001 -0.000001 -0.000006 13.980915 1.201537 -55.004371 0.371140 1.166384 -65.441832 0.000000 -0.000000 0.000004 7.504768 1.182303 -63.779398 1.808103 1.481076 -64.568066 -0.000001 -0.000001 -0.000005 8.571412 2.175713 -75.148501 -0.209909 1.012280 -57.854953 -0.000001 -0.000000 -0.000002 10.030075 13.636139 -84.750066 0.872391 0.057308 -64.595660 -0.000000 -0.000003 -0.000003 0.000001 0.000003 0.000001 0.000001 0.000003 0.000001 0.000000 0.000003 0.000001 0.000001 -0.000002 0.000001 0.000001 -0.000003 -0.000000 0.000001 -0.000002 0.000001 -0.000001 -0.000003 -0.000000 4.844548 7.767663 5.576398 -0.933511 -2.176891 61.845580 11.299277 18.943461 -3.987525 -0.459219 6.620148 5.830231 15.788530 -2.734475 -17.205846 -2.198366 -31.113554 7.361243 0.000000 0.000000 0.000001 2.382110 -3.663494 8.488444 -2.156195 -2.469115 18.673368 -0.000000 0.000000 -0.000000 -1.973118 -5.704575 13.662819 0.277564 -5.099001 26.987886 0.000000 0.000001 -0.000002 -3.253107 -8.555435 11.771193 4.028422 -4.057651 33.262191 -0.000001 0.000001 -0.000000 -6.476170 -11.336568 23.261903 10.708375 -2.549304 34.821049 0.000001 0.000003 0.000002 0.000001 0.000000 0.000001 -0.000000 0.000000 -0.000001 0.000001 0.000000 0.000001 -0.000000 -0.000001 -0.000000 -0.000000 0.000000 0.000000 -0.000000 -0.000001 -0.000000 -0.000000 -0.000000 0.000000 0.000002 0.000002 -0.000000 0.000002 0.000002 -0.000000 0.000002 0.000002 -0.000000 0.000002 0.000002 -0.000000 0.000002 0.000002 -0.000000 0.000002 0.000002 -0.000000 0.000002 0.000002 -0.000000 -0.000001 0.000004 -0.000000 -0.000000 -0.000001 0.000000 
-1.685240 93.642509 2.461341 3.063455 -28.866469 1.323922 -0.000000 -0.000000 -0.000000 -19.340644 17.281396 13.805696 24.157845 12.046387 -1.550310 -6.694491 -3.257816 -8.232161 0.000000 -0.000000 -0.000000 -0.000000 -0.000000 0.000001 -12.644405 -0.284806 -11.238366 17.452201 9.797906 0.846045 -8.573884 -1.417227 8.944103 -0.000000 -0.000001 0.000000 0.000002 0.000000 -0.000001 7.687683 -0.354031 -2.897296 1.150020 -0.885369 2.415948 1.159465 -0.594660 2.476998 -0.950802 3.560547 -1.363083 -0.950799 3.560538 -1.363077 0.000000 -0.000001 -0.000000 -0.950797 3.560445 -1.363049 -0.950724 3.560633 -1.363088 0.000000 0.000001 -0.000000 0.000000 -0.000001 0.000000 -0.068482 -8.755053 -0.061154 -55.296136 0.250263 -41.533018 12.198610 -65.840688 13.637660 -50.199701 12.361561 4.588033 17.544808 -5.719280 -12.930323 10.856754 26.144748 8.645599 0.000001 0.000001 -0.000004 14.018526 1.404967 -55.096728 0.371616 1.166781 -65.471482 -0.000002 -0.000001 0.000001 7.464516 1.182634 -63.815379 1.808116 1.481071 -64.568060 0.000001 -0.000001 -0.000004 8.571740 2.176022 -75.169285 -0.209904 1.012323 -57.855794 -0.000000 0.000003 -0.000000 10.057584 13.635835 -84.771008 0.873726 0.057721 -64.658600 -0.000000 -0.000003 0.000001 -0.000000 -0.000001 0.000001 -0.000000 -0.000001 0.000001 -0.000001 -0.000001 0.000002 0.000001 0.000002 -0.000000 0.000001 0.000001 -0.000001 0.000001 0.000002 -0.000000 -0.000000 0.000002 -0.000001 4.844547 7.767667 5.576396 -0.378006 -1.831306 61.823942 11.291450 18.572411 -3.968787 -0.568531 6.025384 4.932095 15.788534 -2.734475 -17.205848 -2.198360 -31.113564 7.361246 -0.000000 -0.000001 -0.000000 2.381985 -3.664505 8.538209 -2.156174 -2.470106 18.723080 -0.000000 0.000001 0.000000 -1.972841 -5.705409 13.712459 0.279061 -5.099266 27.037773 0.000000 0.000001 -0.000000 -3.253374 -8.556476 11.820623 4.028276 -4.058871 33.312100 0.000000 0.000001 -0.000003 -6.474788 -11.337172 23.311501 10.709133 -2.550103 34.871387 0.000000 0.000002 -0.000000 0.000000 -0.000000 0.000002 0.000001 -0.000000 0.000001 0.000000 0.000000 0.000001 -0.000001 0.000000 -0.000000 -0.000000 0.000000 -0.000000 -0.000001 0.000000 -0.000000 -0.000000 -0.000000 -0.000000 0.000000 0.000001 -0.000000 0.000000 0.000001 -0.000000 0.000000 0.000001 -0.000000 0.000000 0.000001 -0.000000 0.000000 0.000001 -0.000000 0.000000 0.000001 -0.000000 0.000000 0.000001 -0.000000 0.000001 -0.000001 0.000000 -0.000000 -0.000000 -0.000000 
-1.634738 93.519363 2.580021 3.331433 -28.735839 1.495778 0.000000 -0.000000 0.000000 -19.841177 17.214018 13.804214 24.783750 12.022138 -1.630223 -7.058531 -3.339625 -8.196812 -0.000000 -0.000000 0.000000 -0.000001 0.000000 0.000001 -13.134580 -0.155089 -11.380145 18.208458 9.688487 0.830176 -9.035833 -1.467790 9.002182 -0.000000 0.000001 -0.000000 0.000000 -0.000002 0.000000 7.448840 -0.333942 -3.084414 1.200901 -0.881306 2.427858 1.210207 -0.590916 2.486589 -0.996035 3.547274 -1.333151 -0.996029 3.547286 -1.333152 0.000001 -0.000001 0.000001 -0.995966 3.547282 -1.333154 -0.996179 3.547276 -1.333141 -0.000000 -0.000001 0.000000 0.000001 -0.000001 0.000001 -0.024461 -8.697857 0.004612 -55.405361 0.200770 -41.687356 12.534423 -65.806434 13.971476 -50.245511 12.508037 4.624765 17.540289 -5.732606 -12.929014 10.867358 26.173529 8.646969 0.000002 0.000002 -0.000004 13.983216 1.148787 -55.027399 0.371707 1.166906 -65.480313 -0.000000 -0.000003 -0.000001 7.508313 1.167823 -63.760328 1.807727 1.481263 -64.554215 -0.000000 -0.000001 -0.000000 8.570298 2.189108 -75.082220 -0.210376 1.010902 -57.794616 0.000001 -0.000001 -0.000001 10.011903 13.625710 -84.736174 0.871528 0.057044 -64.554782 0.000000 -0.000003 -0.000000 -0.000002 -0.000003 0.000001 -0.000002 -0.000003 0.000001 -0.000003 -0.000003 0.000002 0.000003 0.000000 0.000001 0.000003 -0.000001 0.000000 0.000003 0.000000 0.000001 0.000003 -0.000002 0.000001 4.844544 7.767666 5.576389 0.182850 -1.480599 61.807789 11.284047 18.194021 -3.948489 -0.711398 5.418477 3.941253 15.788530 -2.734475 -17.205848 -2.198361 -31.113561 7.361246 0.000000 -0.000002 -0.000001 2.381202 -3.663231 8.682784 -2.150897 -2.472741 18.867738 -0.000000 0.000001 0.000001 -1.972030 -5.707822 13.856871 0.283421 -5.100056 27.182560 0.000001 0.000000 0.000001 -3.254173 -8.559517 11.964488 4.027939 -4.062384 33.457033 0.000000 0.000001 -0.000000 -6.470763 -11.338896 23.455805 10.711388 -2.552457 35.016949 -0.000001 0.000003 0.000003 -0.000001 -0.000001 0.000000 -0.000001 -0.000001 0.000000 -0.000001 -0.000001 0.000000 0.000001 -0.000001 -0.000000 0.000001 0.000000 -0.000000 0.000001 -0.000001 -0.000000 0.000001 -0.000000 -0.000000 -0.000000 0.000003 -0.000000 -0.000000 0.000003 -0.000000 -0.000000 0.000003 -0.000000 -0.000000 0.000003 -0.000000 -0.000000 0.000003 -0.000000 -0.000000 0.000003 -0.000000 -0.000000 0.000003 -0.000000 0.000001 0.000001 -0.000000 0.000000 -0.000000 0.000000 
-1.554250 93.371498 2.741537 3.685453 -28.578801 1.672907 -0.000000 0.000001 0.000000 -20.507833 17.116782 13.836747 25.605875 12.031744 -1.723259 -7.544315 -3.473962 -8.157175 0.000000 -0.000000 0.000000 -0.000000 -0.000000 -0.000000 -13.660481 -0.018348 -11.522527 18.938931 9.559125 0.812241 -9.505527 -1.534532 9.099584 0.000000 -0.000002 -0.000000 0.000000 0.000002 -0.000000 7.126294 -0.307642 -3.274748 1.254836 -0.873076 2.463105 1.263909 -0.582834 2.520276 -1.029368 3.526353 -1.309918 -1.029357 3.526365 -1.309922 0.000000 -0.000001 0.000000 -1.029228 3.526371 -1.309931 -1.029516 3.526359 -1.309910 0.000000 -0.000001 0.000000 0.000000 -0.000001 0.000000 -0.017887 -8.651151 0.143457 -55.565775 0.163373 -41.849074 12.678782 -65.721877 14.095701 -50.302181 12.707921 4.663286 17.536519 -5.743837 -12.927905 10.872970 26.188704 8.647659 0.000002 -0.000003 -0.000005 13.919168 0.708755 -54.887677 0.371639 1.166810 -65.474685 -0.000002 -0.000000 0.000005 7.582613 1.143647 -63.663831 1.806991 1.481649 -64.527823 -0.000000 -0.000001 -0.000000 8.568361 2.206595 -74.965691 -0.210955 1.009204 -57.721867 0.000000 0.000001 0.000000 9.956287 13.613181 -84.693560 0.869047 0.056266 -64.438320 -0.000000 0.000000 -0.000001 0.000000 -0.000001 -0.000000 0.000000 -0.000001 -0.000000 -0.000001 -0.000000 0.000000 0.000001 0.000000 -0.000001 0.000001 -0.000001 -0.000002 0.000001 0.000000 -0.000001 0.000001 -0.000002 -0.000002 4.844555 7.767668 5.576395 0.747787 -1.126040 61.796881 11.277118 17.810137 -3.927163 -0.887473 4.806084 2.879239 15.788532 -2.734475 -17.205846 -2.198364 -31.113557 7.361237 0.000000 0.000003 0.000001 2.379405 -3.656266 8.915370 -2.144835 -2.477082 19.100329 0.000000 -0.000000 0.000001 -1.970722 -5.704996 14.089624 0.290447 -5.101288 27.415585 -0.000000 0.000000 0.000001 -3.255309 -8.555288 12.196675 4.027310 -4.058866 33.689730 -0.000000 0.000001 -0.000000 -6.465715 -11.337258 23.688325 10.710129 -2.553289 35.250545 0.000000 0.000003 0.000001 -0.000000 -0.000001 -0.000002 0.000000 -0.000001 -0.000001 -0.000000 -0.000001 -0.000002 -0.000002 0.000001 -0.000000 -0.000001 0.000000 0.000001 -0.000002 0.000001 -0.000000 -0.000001 -0.000000 0.000001 -0.000000 -0.000000 -0.000000 -0.000000 -0.000000 -0.000000 -0.000000 -0.000000 -0.000000 -0.000000 -0.000000 -0.000000 -0.000000 -0.000000 -0.000000 -0.000000 -0.000000 -0.000000 -0.000000 -0.000000 -0.000000 0.000000 -0.000000 0.000000 -0.000000 0.000001 0.000000 
